PathFileType	4	(X/Y/Z)	C:/Users/beibeiliu/ov580/test_trc/User3\sequence.20_training_dense_right.trc
DataRate	CameraRate	NumFrames	NumMarkers	Units	OrigDataRate	OrigDataStartFrame	OrigNumFrames
120	120	14	19	mm	120	303	346
Frame#	Time	ThumbCMC			ThumbMCP			ThumbIP			ThumbTip			IndexMCP			IndexPIP			IndexTip			MiddleMCP			MiddlePIP			MiddleTip			RingMCP			RingPIP			RingTip			PinkyMCP			PinkyPIP			PinkyTip			BackHand1			BackHand2			BackHand3	
		X0	Y0	Z0	X1	Y1	Z1	X2	Y2	Z2	X3	Y3	Z3	X4	Y4	Z4	X5	Y5	Z5	X6	Y6	Z6	X7	Y7	Z7	X8	Y8	Z8	X9	Y9	Z9	X10	Y10	Z10	X11	Y11	Z11	X12	Y12	Z12	X13	Y13	Z13	X14	Y14	Z14	X15	Y15	Z15	X16	Y16	Z16	X17	Y17	Z17	X18	Y18	Z18	
302	2.51667	162.281	-4.32631	-7.43316	146.624	-2.97643	-37.9621	141.421	-1.07921	-68.8663	159.037	-5.37585	-87.0409	169.514	43.24	-68.4714	161.377	29.1997	-98.1931	156.225	1.04797	-78.9152	187.783	39.1398	-79.7163	177.394	19.7322	-104.917	177.401	-8.46934	-77.0235	205.722	27.4116	-83.2185	195.998	5.61634	-100.802	189.844	-15.8071	-75.4665	216.977	14.0995	-75.2288	207.316	-5.85509	-92.8945	203.684	-26.6739	-71.4026	216.119	22.981	-25.7501	222.243	6.62981	3.88837	189.881	23.4347	-7.90509	
303	2.525	157.814	-6.95465	-7.0638	143.326	-6.07846	-40.2561	136.95	-6.34774	-71.6313	153.5	-11.9634	-91.3955	169.033	37.4104	-71.2034	154.547	24.5686	-100.36	151.43	-3.20887	-84.5375	186.51	34.4045	-86.302	170.043	12.6887	-106.636	172.242	-12.7872	-78.9762	202.609	21.3837	-80.6409	193.946	-0.651875	-103.289	185.791	-21.2594	-76.248	216.609	8.79405	-80.2881	205.22	-10.198	-94.0272	196.289	-31.574	-70.4043	213.096	19.0948	-29.9707	219.675	5.15887	-1.10741	185.035	19.7177	-8.41941	
304	2.53333	157.813	-8.18448	-8.43157	141.267	-8.14085	-39.2254	137.805	-8.90327	-69.1887	152.337	-15.5678	-88.4228	162.86	35.9376	-76.6524	152.1	21.9544	-101.493	151.536	-8.15179	-82.0583	180.88	31.2434	-86.9651	169.43	9.79857	-108.062	168.162	-17.2326	-75.1923	196.727	18.2028	-86.1935	186.863	-6.05067	-103.944	182.528	-24.3367	-79.3594	214.756	4.01526	-81.3452	201.999	-13.3386	-95.6644	198.308	-35.5263	-74.73	212.832	16.071	-31.6678	219.302	4.44341	-4.46214	183.802	19.9892	-8.11243	
305	2.54167	155.262	-8.42168	-7.18959	137.497	-10.4836	-35.8263	135.883	-9.28681	-69.9349	152.656	-16.3228	-88.5515	162.013	32.7313	-74.735	147.996	20.1049	-101.274	145.078	-9.1331	-82.843	178.988	29.0943	-84.6718	163.467	7.42253	-106.892	164.408	-17.0027	-77.8747	194.795	15.7993	-87.8595	183.642	-3.30642	-105.12	176.954	-25.4639	-79.1383	213.57	-0.199771	-78.9647	197.078	-19.3544	-95.7264	190.181	-34.1354	-74.7846	212.416	12.335	-29.7918	220.447	2.03284	-5.50887	182.078	17.4248	-9.22737	
306	2.55	151.445	-5.67304	-7.2384	133.212	-8.54237	-37.3405	128.677	-9.58943	-69.8914	146.023	-17.9401	-87.5115	157.211	34.8319	-77.8682	147.101	17.7048	-101.108	143.59	-9.98826	-82.0254	177.566	28.841	-87.0813	159.458	7.29435	-107.028	162.443	-16.9334	-78.6026	192.977	14.2866	-85.4227	179.698	-5.1023	-104.019	176.137	-27.3032	-77.0927	206.056	0.867129	-79.6722	194.881	-16.0454	-96.4051	186.826	-38.6556	-71.4612	209.182	11.6403	-29.3244	218.255	-2.03017	-3.76671	184.349	17.2581	-13.1743	
307	2.55833	150.655	-4.55995	-7.2705	134.386	-6.64541	-37.0402	128.642	-8.52427	-66.2449	146.591	-16.5913	-91.7274	160.524	32.9296	-79.0739	140.088	16.6754	-99.2822	137.002	-6.33025	-79.3823	174.516	29.9147	-87.6985	158.092	7.75526	-106.81	157.443	-16.6161	-78.0265	193.562	13.8408	-87.3241	175.832	-4.6651	-103.187	170.752	-25.5692	-75.7745	207.219	-1.8498	-80.622	189.525	-18.5496	-94.5054	181.551	-35.4039	-70.8905	209.54	10.1364	-33.0271	211.777	0.963127	-6.41464	182.087	19.5286	-11.5989	
308	2.56667	151.134	-3.4622	-7.22406	131.692	-6.37588	-33.241	126.352	-8.5934	-64.5795	144.417	-16.1629	-87.1026	158.986	33.5765	-75.513	143.505	15.9421	-99.1501	137.803	-6.10295	-81.3775	175.303	28.8723	-88.6105	160.215	11.2464	-107.351	157.082	-16.1353	-77.4766	191.36	14.5913	-87.7549	178.559	-5.54733	-103.256	167.719	-23.7491	-78.1989	203.343	-0.885173	-74.6709	189.353	-16.5179	-94.4056	180.753	-36.636	-68.9611	207.534	11.3324	-31.8272	213.18	1.91914	-5.71612	179.473	19.0535	-10.9731	
309	2.575	149.74	-3.9775	-5.64511	130.158	-3.74708	-37.7474	124.845	-6.27876	-69.1398	143.805	-15.5014	-84.813	153.416	35.5738	-75.4649	142.295	19.6563	-99.113	137.23	-6.26626	-78.7255	175.362	28.8337	-83.7739	158.544	6.90652	-106.337	157.254	-16.7991	-77.2403	188.014	14.7984	-87.0597	177.212	-6.6417	-102.963	169.169	-26.1834	-74.1536	203.603	-1.16046	-77.8811	189.05	-15.3796	-94.1921	180.237	-36.6498	-71.7343	205.433	12.5076	-26.701	213.938	0.945836	-2.44853	180.351	20.6683	-11.0751	
310	2.58333	146.167	-3.93111	-6.72284	132.593	-6.11613	-35.3477	122.244	-7.65069	-65.0342	142.966	-14.8446	-85.3313	153.77	34.9807	-75.618	141.792	20.9615	-99.0623	137.766	-6.15766	-81.3165	173.117	28.0765	-84.2912	159.852	9.37354	-106.841	153.392	-17.3191	-76.3297	191.485	13.3088	-83.3467	172.802	-7.00668	-101.053	166.094	-24.7765	-74.2552	203.495	-0.438886	-78.9198	184.469	-17.125	-91.1493	180.408	-37.2867	-68.0952	204.012	14.476	-28.8311	209.985	0.973399	-2.09237	177.482	18.9825	-10.9256	
311	2.59167	148.431	-4.66383	-6.2118	129.33	-7.09795	-32.3558	125.517	-7.87169	-62.2459	139.853	-15.7618	-86.1441	155.763	34.2881	-74.1232	141.543	21.2013	-98.8703	135.65	-7.78227	-76.2914	169.942	29.2591	-85.3044	157.959	9.14371	-107.059	154.232	-17.6361	-78.4982	186.93	13.8483	-82.9455	173.57	-9.06361	-101.704	166.69	-26.0929	-73.2178	204.221	-2.45833	-76.3098	188.49	-19.824	-93.8615	178.945	-36.1021	-68.9376	203.966	11.5321	-29.1362	211.618	1.09347	-3.57895	178.32	17.3624	-9.46367	
312	2.6	147.066	-5.46152	-4.80457	129.253	-6.28953	-33.721	122.418	-7.65635	-66.2147	143.109	-16.227	-86.2983	152.69	34.9172	-75.2986	141.144	17.752	-99.4207	136.079	-7.09423	-81.0485	170.088	29.2277	-84.4682	155.081	8.77796	-106.646	153.971	-17.3213	-77.7095	187.597	13.7097	-87.2712	173.758	-7.30442	-101.74	166.095	-26.4242	-72.8863	199.716	-0.286771	-78.3531	184.673	-18.3135	-91.6163	182.834	-39.7848	-66.9961	208.439	12.0358	-29.3842	208.333	3.11765	-4.41069	176.269	21.2106	-9.76583	
313	2.60833	148.881	-3.64375	-7.64821	127.105	-6.08693	-33.9249	122.028	-7.25756	-65.3009	140.312	-16.2512	-89.1461	156.993	32.5451	-73.9364	138.509	18.4235	-98.1168	135.583	-7.22062	-79.3703	174.609	28.0861	-86.9149	157.794	8.40516	-106.606	153.968	-17.8631	-77.374	191.494	12.6654	-84.1476	175.779	-7.46355	-103.099	167.938	-27.1515	-75.9494	201.238	-1.15268	-79.1426	183.308	-18.5393	-91.9709	182.832	-40.3264	-70.9218	204.932	12.3097	-32.403	214.176	-0.539389	-1.55773	179.687	18.6389	-9.90218	
314	2.61667	145.826	-3.79269	-2.97896	129.765	-6.56821	-32.09	126.897	-6.3653	-67.3203	142.564	-15.3626	-87.5124	155.232	34.657	-75.9937	139.782	20.5795	-98.7145	137.332	-6.76874	-79.1133	172.935	28.5573	-85.3169	155.438	6.60392	-105.695	157.501	-18.1863	-79.4024	189.638	12.892	-85.2781	173.663	-5.63811	-101.955	165.758	-25.5995	-73.5891	200.456	-1.23491	-74.646	184.851	-17.0927	-92.1376	178.214	-37.0257	-69.9668	208.221	10.8333	-32.8425	209.162	1.39508	-3.43798	177.626	19.0842	-8.87752	
315	2.625	148.671	-4.40833	-3.23909	129.46	-6.39881	-32.4797	126.173	-7.48244	-64.7888	139.492	-15.9711	-89.2747	156.56	33.7537	-74.4935	144.056	20.7885	-99.5725	136.694	-7.79565	-76.0843	172.21	28.809	-83.2822	158.534	6.9449	-106.843	153.719	-16.5618	-78.0096	189.717	13.3438	-87.8632	175.264	-5.74701	-102.286	165.903	-25.2169	-72.8369	200.87	-0.222981	-79.5515	184.624	-17.7122	-91.3797	182.27	-39.083	-66.4856	206.648	13.0581	-32.1628	211.031	0.389234	-2.3995	179.272	21.367	-10.1271	
